<?xml version="1.0" encoding="UTF-8"?>
<svg version="1.1" xmlns="http://www.w3.org/2000/svg" width="240" height="60" viewBox="0 0 548 455">
<path class="logo-st0" fill="#007BFF" d="M0 0 C50.96920256 -1.464703 122.16692989 3.87064825 162.54150391 38.77783203 C170.64617168 46.60256884 175.78714737 54.87435834 176.10400391 66.32080078 C175.93224629 76.6949611 172.44151841 85.78924246 165.47509766 93.60205078 C152.72743323 105.61488744 138.2190016 107.57137214 121.46728516 107.34814453 C110.10391939 106.96304311 100.15962309 103.18525213 91.96191406 95.15649414 C86.90071042 89.63442983 83.40360009 84.02053804 80.10400391 77.32080078 C79.59683838 76.32653076 79.08967285 75.33226074 78.56713867 74.30786133 C76.50907642 70.27065957 74.48160927 66.21927171 72.48095703 62.15332031 C61.97679728 40.81720621 49.51332094 26.45038693 26.67822266 18.28955078 C0.59345214 9.83841018 -27.05369647 13.40202439 -51.28662109 25.69580078 C-62.48883726 31.90010512 -71.68710409 39.59803334 -79.08349609 50.07080078 C-79.60427734 50.79267578 -80.12505859 51.51455078 -80.66162109 52.25830078 C-89.75652499 66.04426037 -93.61326562 82.96517878 -96.08349609 99.07080078 C-96.23818359 100.03711426 -96.23818359 100.03711426 -96.39599609 101.02294922 C-97.41467832 108.50662541 -97.3056265 116.08523098 -97.32373047 123.62402344 C-97.33336371 126.0376327 -97.36442894 128.45036172 -97.39599609 130.86376953 C-97.54088727 152.11728142 -94.05801721 172.05831797 -79.13037109 188.18017578 C-46.44948225 219.36423002 7.55817642 226.00925638 49.75192261 235.41995239 C87.51847901 243.84688274 87.51847901 243.84688274 105.91650391 250.07080078 C106.79193848 250.3626123 107.66737305 250.65442383 108.56933594 250.95507812 C140.90931591 261.86458517 168.96957603 280.0901518 185.38134766 310.81298828 C196.12262884 332.81792299 197.44298807 360.77723434 189.66259766 383.89111328 C180.69111417 408.88782648 160.45926444 426.91452067 136.91650391 438.07080078 C60.19246614 471.6489673 -47.02370356 459.52301728 -123.08349609 430.07080078 C-141.00924111 423.02338087 -160.68072 413.48664106 -169.08349609 395.07080078 C-172.40050117 386.47744345 -171.53068145 376.48151126 -168.58349609 367.88330078 C-163.74467083 357.19972958 -154.22820031 349.53581623 -143.59521484 345.01220703 C-128.81041127 339.81888948 -111.29323452 340.49545757 -96.95849609 346.69580078 C-83.71606244 354.09840344 -77.98132338 366.10282881 -71.58535767 379.15245056 C-70.98363331 380.3798777 -70.38073204 381.60672851 -69.77670288 382.83302307 C-68.26804401 385.89601911 -66.77459623 388.96348618 -65.30712891 392.04663086 C-56.00037771 411.16779858 -41.64026335 421.52390801 -21.95458984 428.61767578 C-0.15448284 435.9872047 23.18242649 437.21358505 44.26708984 427.2331543 C63.08275006 417.88035361 76.51689843 405.2020804 83.91650391 385.07080078 C91.31229719 359.30878751 88.21560613 332.46255063 75.42602539 308.96948242 C72.13421233 303.17575583 68.36043081 298.04109572 63.91650391 293.07080078 C62.90523438 291.86423828 62.90523438 291.86423828 61.87353516 290.63330078 C36.75516958 261.35141741 -2.45115296 246.42764222 -36.80615234 230.94189453 C-57.58762133 221.49136642 -78.16878375 209.77694306 -96.73083496 196.47363281 C-97.35925041 196.02359894 -97.98766586 195.57356506 -98.63512421 195.1098938 C-99.11308693 194.7669931 -99.59104965 194.42409241 -100.08349609 194.07080078 C-99.99799737 205.66120155 -99.90272675 217.25148078 -99.79596901 228.84170628 C-99.74664901 234.22720996 -99.70033126 239.61269979 -99.66162109 244.99829102 C-99.42935389 276.87632377 -99.05178067 308.50563279 -94.08349609 340.07080078 C-94.72270996 339.86874023 -95.36192383 339.66667969 -96.02050781 339.45849609 C-115.81482302 333.3366952 -136.27303982 333.2142322 -155.02099609 342.94580078 C-165.73391035 349.27331154 -174.21194524 358.50977334 -177.62255859 370.80126953 C-180.12541504 383.12465594 -179.00189391 394.35406691 -172.08349609 405.07080078 C-162.60997194 417.65039842 -149.88199074 425.15270306 -136.08349609 432.07080078 C-137.76668853 437.12037808 -142.53890839 438.76742179 -147.10986328 441.11816406 C-182.4979804 458.19936557 -226.73566871 458.62885459 -263.52099609 445.87939453 C-284.69907633 437.52398006 -298.90047832 423.83468003 -309.14990234 403.60205078 C-310.08349609 401.07080078 -310.08349609 401.07080078 -309.08349609 398.07080078 C-307.37646484 396.83251953 -307.37646484 396.83251953 -305.27099609 395.75830078 C-304.58392578 395.39091797 -303.89685547 395.02353516 -303.18896484 394.64501953 C-301.08349609 394.07080078 -301.08349609 394.07080078 -299.15942383 394.83081055 C-296.97728759 396.1342411 -295.49890351 397.48601978 -293.76318359 399.33642578 C-293.15031494 399.97676758 -292.53744629 400.61710937 -291.90600586 401.27685547 C-290.94198853 402.2886084 -290.94198853 402.2886084 -289.95849609 403.32080078 C-278.21057976 415.34562315 -266.63773273 421.05929137 -249.68139648 421.36328125 C-235.29298007 421.45442456 -223.66716163 420.46972783 -212.08349609 411.07080078 C-211.45830078 410.56935547 -210.83310547 410.06791016 -210.18896484 409.55126953 C-195.92968315 396.78315455 -194.24897494 375.00592399 -193.08349609 357.07080078 C-192.75647247 349.37619189 -192.7821025 341.67617392 -192.78051758 333.97607422 C-192.7728339 331.73622844 -192.76428337 329.4963855 -192.75494385 327.25654602 C-192.73682017 322.47419687 -192.7246833 317.69188559 -192.71740532 312.90950775 C-192.7057981 305.32335811 -192.68028901 297.73729155 -192.65309143 290.15118408 C-192.61630707 279.49630711 -192.58555359 268.84143251 -192.56030273 258.18652344 C-192.55870543 257.51329691 -192.55710813 256.84007037 -192.55546243 256.14644304 C-192.55386353 255.47245174 -192.55226463 254.79846043 -192.55061728 254.10404515 C-192.52795614 244.56154459 -192.50330505 235.01905185 -192.47631836 225.4765625 C-192.47442221 224.80539067 -192.47252607 224.13421884 -192.47057246 223.44270846 C-192.43860345 212.18250556 -192.40283536 200.92231632 -192.36527687 189.66213059 C-192.34060945 182.14554226 -192.32106531 174.62896424 -192.30589473 167.11235094 C-192.2955684 162.40764121 -192.28142308 157.70294786 -192.26641846 152.99825096 C-192.26035094 150.84426709 -192.25584344 148.69027805 -192.25316048 146.53628731 C-192.23858147 135.44811303 -192.08843832 124.37849042 -191.65077209 113.29815674 C-191.61429642 112.33867779 -191.57782075 111.37919885 -191.54023975 110.39064479 C-190.41774667 84.62173186 -184.382926 63.97079316 -164.81396484 45.98486328 C-121.71330277 9.8174752 -54.21568597 1.84234227 0 0 Z " transform="translate(310.08349609375,-0.07080078125)"/>
</svg>
